<?xml version="1.0" encoding="utf-8"?>
<!-- Generator: Adobe Illustrator 22.0.0, SVG Export Plug-In . SVG Version: 6.00 Build 0)  -->
<svg version="1.1" id="Слой_1" xmlns="http://www.w3.org/2000/svg" xmlns:xlink="http://www.w3.org/1999/xlink" x="0px" y="0px"
	 viewBox="0 0 1000 1000" style="enable-background:new 0 0 1000 1000;" xml:space="preserve">
<style type="text/css">
	.st0{fill:#CE4D46;}
	.st1{fill:#2AA876;}
	.st2{fill:#FFCD7F;}
</style>
<g>
	<g>
		<path d="M154,812.5h-14c-3.8,0-6.9-3-6.9-6.9v-77.5h-17.9c-9.5,0-17,5.7-19.4,14.7l-16.8,62.8c-1.1,3.9-4.8,6.9-8.7,6.9H55.5
			c-3.3,0-5.7-2.9-4.8-6.2l18.6-70.4c6.2-23.3,27.3-28.5,48.7-28.5h36.6c3.5,0,6.2,3.3,6.2,6.9v91.3
			C160.8,809.5,157.8,812.5,154,812.5z"/>
		<path d="M201.6,780.1c1.1,12,6.5,17.3,18.8,17.3c6.3,0,11.9-1.8,14.4-5c2-2.4,4.7-3.9,8.4-3.9h11c2.6,0,4.5,1.9,4.5,4.5
			c0,15.6-16.1,21-40.1,21c-26.7,0-42.8-14.4-42.8-41.6c0-27,16.2-41.8,42.8-41.8c26.7,0,42.8,14.3,42.8,40.7v4.2
			c0,2.6-2,4.5-4.5,4.5H201.6z M201.5,764.6h34.1c-0.4-11.3-5.9-17.3-17-17.3C207.8,747.4,202.1,753.4,201.5,764.6z"/>
		<path d="M342.2,759.1c-3.2,6.6-9.2,11.9-15.6,13.2c6.2,1.8,11.1,6,15.6,13.2l12.5,20.1c2.4,3.9,1.4,6.9-2.6,6.9h-13.8
			c-4.8,0-8.9-3-11.3-6.9l-9.3-15.2c-4.1-6.6-10.7-9.8-17.4-9.8V808c0,2.5-2,4.5-4.5,4.5h-16.4c-2.6,0-4.5-2-4.5-4.5v-71.3
			c0-2.6,2-4.5,4.5-4.5h16.4c2.6,0,4.5,2,4.5,4.5V764c8.7,0,14.4-3.6,17.4-9.9l7.1-15c2-4.2,6.2-6.9,10.5-6.9h13.8
			c3.9,0,4.4,3,2.6,6.9L342.2,759.1z"/>
		<path d="M435.7,732.2c2.6,0,4.5,2,4.5,4.5v8.7c0,2.6-1.9,4.5-4.5,4.5h-23.4V808c0,2.5-2,4.5-4.5,4.5h-16.4c-2.6,0-4.5-2-4.5-4.5
			v-58.1h-23.4c-2.6,0-4.5-2-4.5-4.5v-8.7c0-2.6,2-4.5,4.5-4.5H435.7z"/>
		<path d="M531.8,772.3c0,27.6-15.9,41.8-44.3,41.8s-44.3-14.1-44.3-41.8c0-27.6,15.9-41.6,44.3-41.6S531.8,744.7,531.8,772.3z
			 M506.4,772.3c0-17.7-6.2-24.9-18.9-24.9s-18.9,7.2-18.9,24.9c0,17.7,6.2,25.1,18.9,25.1S506.4,790,506.4,772.3z"/>
		<path d="M631.2,772.3c0,27.6-15.9,41.8-39.4,41.8c-9,0-15-1.8-21.2-3.8v22.5c0,2.5-1.9,4.5-4.5,4.5h-16.4c-2.6,0-4.5-2-4.5-4.5
			v-96.1c0-2.6,2-4.5,4.5-4.5h14.1c2.5,0,4.5,2,4.5,4.5v2.3c6.8-4.8,15-8.3,25.7-8.3C615.4,730.7,631.2,744.8,631.2,772.3z
			 M570.7,755v38.3c6.2,1.9,12.2,3,15.9,3c13.5,0,18.5-7.4,18.5-24c0-16.5-5-23.9-17-23.9C582.7,748.4,575.9,751.7,570.7,755z"/>
		<path d="M694.8,737.4c1.7-3,5.3-5.3,8.3-5.3h20.6c2.6,0,4.5,2,4.5,4.5V808c0,2.5-1.9,4.5-4.5,4.5h-15.3c-2.6,0-4.5-2-4.5-4.5V760
			L678,807.3c-1.6,2.9-5.3,5.3-8.3,5.3h-20.6c-2.5,0-4.5-2-4.5-4.5v-71.3c0-2.6,2-4.5,4.5-4.5h15.3c2.5,0,4.5,2,4.5,4.5v48.2
			L694.8,737.4z"/>
		<path d="M785.8,806.2c-15.5,0-26.7-7.2-35.1-34.2l-11-35.4c-0.7-2.3,1.1-4.4,3.5-4.4h15.3c2.7,0,5.7,2.1,6.6,5l9.6,31.1
			c5,15.8,9.6,20.3,16.1,20.3l14.6-51.4c0.7-2.9,3.5-5,6.2-5H827c2.4,0,4,2.1,3.5,4.4L811.2,805c-6.8,23.9-15.8,33.8-33,33.8
			c-6,0-14.3-0.6-19.1-1.5c-2.6-0.4-4.5-2.3-4.5-4.5v-8.1c0-2.5,1.9-4.5,4.5-4.5h2.7c3.3,0,6.2,1.2,9.6,1.2
			C778.5,821.4,783.1,816.3,785.8,806.2z"/>
		<path d="M891.7,812.5c-3.2,0-5.6-2.1-6.9-5.1L866,762.2V808c0,2.5-2,4.5-4.5,4.5h-15.9c-2.5,0-4.5-2-4.5-4.5v-71.3
			c0-2.6,2-4.5,4.5-4.5h25.2c3,0,5.3,2.3,6.6,5.4l17.9,43.7l17.9-43.7c1.4-3.2,3.6-5.4,6.6-5.4H945c2.5,0,4.5,2,4.5,4.5V808
			c0,2.5-2,4.5-4.5,4.5h-15.9c-2.6,0-4.5-2-4.5-4.5v-45.8l-18.8,45.2c-1.4,3-3.8,5.1-6.9,5.1H891.7z"/>
	</g>
	<g>
		<path d="M484.8,234.6c73,1.8,132.1,3,191.1,4.9c15.3,0.5,31.2,1.3,45.5,5.9c21.8,7.1,33.4,24.4,35.1,47.5c6,82,5.5,164,0,245.9
			c-1.9,27.6-23.2,49-50.5,50.9c-47.2,3.4-94.4,8.5-141.7,10.1c-46.7,1.6-93.6,0-140.4-0.9c-21.5-0.4-43-2.1-64.4-3.6
			c-25.2-1.8-50.4-3.4-75.5-6.1c-23.1-2.5-43.8-26.3-44-51.6c-0.7-76.5-0.6-153-0.7-229.5c0-5.5,0.2-11.1,0.7-16.6
			c2.2-27.2,23.7-48.8,50.5-49.8C359.8,239.1,429.3,236.7,484.8,234.6z M256.8,408c1.3,47.5,2.2,87.6,3.5,127.8
			c0.6,18.7,13.9,32.3,32.3,33.7c23.8,1.8,47.5,4.3,71.2,5.5c45.3,2.4,90.6,6.3,135.9,5.5c63.9-1.1,127.7-5.7,191.6-9.5
			c10.1-0.6,21-3.1,29.8-7.8c12.7-6.9,14.5-20.2,15.4-34c5.3-79.1,5.2-158.1-0.8-237.2c-1.1-15.1-13.7-28.3-28.9-29.1
			c-43.8-2.4-87.7-5.7-131.6-5.8c-79.1-0.2-158.3,1.6-237.4,2.8c-15.7,0.2-31.4,1.5-47,2.9c-17.9,1.6-29.9,14.3-30.6,32.1
			C258.9,335,257.8,375.1,256.8,408z"/>
		<path class="st0" d="M256.8,408c1-32.8,2.1-73,3.5-113.1c0.6-17.8,12.7-30.5,30.6-32.1c15.6-1.4,31.3-2.6,47-2.9
			c79.1-1.2,158.3-3,237.4-2.8c43.9,0.1,87.7,3.5,131.6,5.8c15.2,0.8,27.7,13.9,28.9,29.1c5.9,79,6.1,158.1,0.8,237.2
			c-0.9,13.8-2.7,27.1-15.4,34c-8.8,4.8-19.7,7.2-29.8,7.8c-63.8,3.8-127.7,8.4-191.6,9.5c-45.3,0.8-90.6-3.2-135.9-5.5
			c-23.8-1.2-47.5-3.7-71.2-5.5c-18.4-1.4-31.7-14.9-32.3-33.7C259,495.6,258,455.4,256.8,408z M451.5,359.5c6,0,9.1,0,12.3,0
			c31.4,0,62.9-0.1,94.3,0c22.1,0.1,19.2-3.4,19.3,19.4c0.2,34.3,0.1,68.7,0.5,103c0.1,10.7,7.3,16.5,17.9,17.3
			c8.5,0.6,15.2-2.2,21.1-8.2c17.2-17.4,34.6-34.5,51.8-51.9c12.7-12.8,12.6-26.1-0.2-39c-16.6-16.7-33.4-33.3-49.9-50.1
			c-7.6-7.7-16.5-11.3-27.3-11.2c-64.3,0.1-128.7-0.1-193-0.1c-5.4,0-11,0.9-16.3,2c-43.6,8.8-72.1,49.5-64.5,92.3
			c8,45.3,47.2,73.5,92.9,66.3c29.8-4.7,50.5-21.9,61.5-49.5c11.6-29.2,6.7-56.5-12.7-81.2C457.2,366.3,455.2,363.9,451.5,359.5z"/>
		<path class="st1" d="M606.8,367c-1.9-1.9-4.3-3.2-8-6c0,40.2,0,78.2,0,118.8c4.1-3.8,6.5-5.8,8.7-7.9
			c14.4-14.3,28.8-28.7,43.1-43.1c8.3-8.4,8.3-9.9,0-18.2C636,396.1,621.4,381.5,606.8,367z"/>
		<path class="st2" d="M396.7,359.8c-33.2,0.4-59.8,27.1-59.8,60.2c-0.2,32.1,24.5,60.8,60.4,60.5c35.5-0.3,59.5-27.4,59.9-60.1
			C457.6,387.1,429.6,359.4,396.7,359.8z"/>
		<path d="M618.6,350.1c-7.6-7.7-16.5-11.3-27.3-11.2c-64.3,0.1-128.7-0.1-193-0.1c-5.4,0-11,0.9-16.3,2
			c-43.6,8.8-72.1,49.5-64.5,92.3c8,45.3,47.2,73.5,92.9,66.3c29.8-4.7,50.5-21.9,61.5-49.5c11.6-29.2,6.7-56.5-12.7-81.2
			c-1.9-2.4-3.9-4.8-7.6-9.2c6,0,9.1,0,12.3,0c31.4,0,62.9-0.1,94.3,0c22.1,0.1,19.2-3.4,19.3,19.4c0.2,34.3,0.1,68.7,0.5,103
			c0.2,10.7,7.3,16.5,17.9,17.3c8.5,0.6,15.2-2.2,21.1-8.2c17.2-17.4,34.6-34.5,51.8-51.9c12.7-12.8,12.6-26.1-0.2-39
			C651.9,383.4,635.1,366.9,618.6,350.1z M457.1,420.4c-0.4,32.7-24.4,59.8-59.9,60.1c-35.9,0.3-60.5-28.3-60.4-60.5
			c0-33.1,26.6-59.8,59.8-60.2C429.6,359.4,457.6,387.1,457.1,420.4z M650.6,428.8c-14.4,14.4-28.7,28.8-43.1,43.1
			c-2.2,2.2-4.6,4.2-8.7,7.9c0-40.6,0-78.6,0-118.8c3.8,2.8,6.1,4.1,8,6c14.7,14.5,29.2,29.1,43.8,43.6
			C658.9,419,658.9,420.5,650.6,428.8z"/>
	</g>
</g>
</svg>
